PathFileType  4	(X/Y/Z) C:\Users\antoi\Documents\MyRepositories\mobilecap\ResultsAnalysis
DataRate	CameraRate	NumFrames	NumMarkers	Units	OrigDataRate	OrigDataStartFrame	OrigNumFrames
100.0	100.0	6	51	mm	100.0	169	270
Frame#	Time	r_knee			r_shank_antsup			r_ankle			r_calc			r_5meta			r_toe			L_knee			L_shank_antsup			L_ankle			L_calc			L_5meta			L_toe			r_sh2			r_sh3			r_sh4			L_sh2			L_sh3			r_thigh1			r_thigh2			r_thigh3			r_thigh4			r_thigh5			L_thigh1			L_thigh2			L_thigh3			L_thigh4			r.ASIS			r.PSIS			L.ASIS			L.PSIS			C7			R_Shoulder			L_Shoulder			R_Sternum			L_Sternum			R_humerus			R_elbow_med			R_elbow_lat			R_forearm			R_wrist_radius			R_wrist_ulna			L_humerus			L_elbow_med			L_elbow_lat			L_forearm			L_wrist_radius			L_wrist_ulna			R_HJC			L_HJC			R_HJC_reg			L_HJC_reg			
		X1	Y1	Z1	X2	Y2	Z2	X3	Y3	Z3	X4	Y4	Z4	X5	Y5	Z5	X6	Y6	Z6	X7	Y7	Z7	X8	Y8	Z8	X9	Y9	Z9	X10	Y10	Z10	X11	Y11	Z11	X12	Y12	Z12	X13	Y13	Z13	X14	Y14	Z14	X15	Y15	Z15	X16	Y16	Z16	X17	Y17	Z17	X18	Y18	Z18	X19	Y19	Z19	X20	Y20	Z20	X21	Y21	Z21	X22	Y22	Z22	X23	Y23	Z23	X24	Y24	Z24	X25	Y25	Z25	X26	Y26	Z26	X27	Y27	Z27	X28	Y28	Z28	X29	Y29	Z29	X30	Y30	Z30	X31	Y31	Z31	X32	Y32	Z32	X33	Y33	Z33	X34	Y34	Z34	X35	Y35	Z35	X36	Y36	Z36	X37	Y37	Z37	X38	Y38	Z38	X39	Y39	Z39	X40	Y40	Z40	X41	Y41	Z41	X42	Y42	Z42	X43	Y43	Z43	X44	Y44	Z44	X45	Y45	Z45	X46	Y46	Z46	X47	Y47	Z47	X48	Y48	Z48	X49	Y49	Z49	X50	Y50	Z50	X51	Y51	Z51	

169	1.68000000	-176.69674	507.87130	-424.78708	-159.04981	427.93314	-406.32247	-322.33955	105.34063	-421.75729	-391.30933	55.00538	-470.32491	-193.22384	38.87672	-382.71670	-154.66295	61.90515	-441.41996	-191.86523	509.28081	-741.63387	-185.03867	392.69405	-756.95433	-330.57154	102.23787	-717.52254	-400.83005	54.64532	-671.25645	-190.68544	32.85729	-766.59365	-158.39948	59.84770	-705.04470	-197.53435	321.32627	-399.80674	-228.79416	454.02915	-389.47835	-276.18446	349.06994	-386.77203	-267.00481	429.64102	-762.37750	-303.20729	314.02937	-755.94698	-296.32264	797.47587	-375.90974	-224.62288	716.42369	-393.69136	-245.80566	658.61005	-368.47962	-378.81122	718.91692	-373.96488	-294.99611	636.69490	-380.09348	-316.93247	807.43991	-746.31983	-223.93177	702.94067	-753.08659	-403.76530	728.92405	-742.82609	-307.24291	630.45112	-759.05640	-321.89584	906.45529	-426.29357	-486.85482	1010.87195	-495.91302	-333.86856	903.91342	-684.24332	-492.00109	1008.52769	-601.13784	-215.42578	1450.32928	-565.19539	-181.51350	1400.85263	-397.61097	-179.34433	1389.45528	-715.89636	-117.93619	1318.32684	-528.53736	-121.26330	1313.37637	-583.66671	-271.11272	1185.54176	-248.86815	-325.98249	1080.86275	-293.52892	-307.46393	1111.44008	-210.13225	-182.91255	1007.05722	-197.84719	-100.42251	925.37973	-211.67278	-125.31019	916.21463	-176.09003	-303.34455	1174.76021	-826.09746	-393.42721	1111.28664	-772.71171	-364.42852	1110.28535	-843.62966	-341.12389	934.12542	-860.20143	-319.61130	836.39257	-847.27656	-355.05503	835.88032	-867.34211	-427.27538	862.51395	-427.26252	-435.99102	859.56793	-657.44650	-418.63845	864.24493	-457.26301	-426.96441	860.45516	-627.45601	
170	1.69000000	-176.78265	506.64653	-425.57503	-159.34991	426.58314	-406.50670	-323.68312	104.40679	-421.69648	-391.56665	54.65280	-470.03313	-193.38611	38.68623	-382.49578	-155.09710	62.29271	-441.00294	-191.18827	507.30913	-740.61310	-184.73922	391.37286	-756.04609	-331.65535	101.41803	-716.90970	-400.91881	54.38392	-670.94266	-191.09128	32.97643	-766.82028	-158.80309	60.47224	-705.56036	-198.56465	320.17907	-399.88418	-228.97290	453.29300	-389.90919	-276.75783	348.58372	-386.83582	-266.59631	428.51820	-761.30228	-303.24426	313.07096	-755.12059	-297.75547	795.15754	-376.61552	-225.58094	714.61746	-394.33975	-246.44506	656.02176	-370.23700	-379.91472	716.23830	-375.03615	-295.74113	634.74572	-380.53490	-317.68717	803.85308	-746.79035	-224.02736	700.16130	-753.03961	-404.11726	725.36997	-742.47121	-307.16467	627.24024	-758.50388	-322.60228	902.60929	-426.13307	-485.94435	1008.01239	-497.54210	-333.44616	899.31183	-684.62147	-490.82515	1005.90340	-602.35614	-210.23219	1444.34759	-565.35628	-176.44933	1394.13401	-397.78058	-172.40470	1381.95442	-716.67672	-113.31655	1311.91362	-528.77200	-116.32654	1307.07161	-583.40449	-265.62573	1177.87282	-250.23620	-320.88971	1074.02096	-295.84850	-301.87281	1103.09883	-212.32848	-179.69537	995.43035	-200.62916	-99.45723	911.67597	-215.59765	-124.31341	903.07685	-179.32632	-300.94670	1168.54713	-825.19290	-390.96447	1107.18477	-770.55908	-363.27030	1105.06222	-841.49372	-344.84486	928.39872	-857.08388	-325.54771	830.11706	-843.48915	-361.63879	830.51652	-862.69292	-428.38233	859.60961	-427.83306	-435.97363	856.02956	-658.04790	-419.38563	860.43629	-457.50532	-427.32811	857.00703	-628.05182	
171	1.70000000	-176.08254	505.36381	-426.20712	-158.85542	425.28198	-406.80687	-324.74207	103.85880	-421.78269	-391.67257	54.43940	-469.85165	-193.48150	38.71937	-382.41618	-155.41569	62.63763	-440.78268	-189.50176	505.45939	-739.26505	-183.47676	390.19267	-755.13050	-332.51638	101.04568	-716.59500	-401.00556	54.17823	-670.87485	-191.67240	33.19229	-767.22420	-159.31599	61.27697	-706.41745	-198.87910	319.17953	-400.21896	-228.74569	452.47232	-390.44500	-276.71460	348.34819	-386.99337	-265.10612	427.78960	-760.45395	-302.52440	312.58722	-754.52568	-298.79982	792.54290	-377.19685	-226.17007	712.76410	-394.69722	-246.68984	653.69312	-370.98059	-380.62232	713.26074	-375.93260	-295.84652	632.32501	-381.52198	-317.76226	799.91805	-747.60117	-223.55999	697.37028	-752.81100	-404.01311	721.36118	-742.24591	-306.42783	623.63029	-757.70766	-323.15929	898.16306	-425.96833	-485.21421	1004.69590	-499.04677	-332.88212	894.24591	-684.91443	-489.63677	1002.73831	-603.46067	-205.40030	1437.78143	-565.61484	-171.54309	1386.67154	-397.82015	-165.73066	1373.55607	-717.48963	-108.70466	1305.10263	-528.83125	-111.62107	1300.24591	-583.20243	-260.25602	1169.49217	-251.46003	-316.34830	1066.70100	-298.04741	-296.45828	1093.83799	-214.43712	-176.50661	983.37270	-203.72910	-98.12499	898.22369	-219.56031	-123.09154	889.51678	-183.41753	-298.65329	1161.43435	-824.48797	-388.40395	1102.18467	-768.87762	-362.24089	1099.06327	-840.01067	-348.21620	921.94789	-854.31295	-331.03400	823.51389	-839.96395	-367.61911	824.32463	-858.08395	-429.41952	856.13319	-428.37870	-435.86959	852.01769	-658.61947	-420.17734	856.17168	-457.86750	-427.41400	852.96767	-628.72754	
172	1.71000000	-174.70270	504.01991	-426.85482	-157.62315	424.10531	-407.30893	-325.41559	103.52727	-422.15409	-391.70022	54.28747	-469.87250	-193.66800	38.90349	-382.30396	-155.70125	63.01009	-440.54369	-186.68587	503.91356	-738.06042	-181.26823	389.04786	-754.47882	-333.02136	101.05816	-716.59303	-401.11965	54.04487	-670.96971	-192.22052	33.61046	-767.57311	-159.80569	62.08885	-707.09694	-198.37905	318.38556	-400.72984	-227.71478	451.62267	-391.05339	-276.03592	347.96401	-387.44749	-262.60894	427.28704	-759.77748	-301.05134	312.48255	-754.21296	-299.64023	789.98788	-377.32269	-226.32701	710.97646	-394.80772	-246.46437	651.71912	-371.12610	-380.90514	710.11972	-376.51314	-295.32586	629.82817	-382.41556	-316.85653	796.55417	-748.53640	-222.40323	694.88235	-752.32131	-403.16438	717.32756	-742.11813	-304.79839	620.11840	-756.87261	-323.58501	893.31718	-425.83090	-484.61425	1001.06247	-500.04474	-332.19881	888.95653	-685.28027	-488.50198	999.08550	-604.40557	-200.90347	1430.82825	-565.88642	-166.83046	1378.45296	-397.74181	-159.56993	1364.54144	-718.25214	-104.59042	1298.14969	-528.32248	-107.27534	1292.99254	-583.16860	-254.99696	1160.25638	-252.59079	-311.72788	1058.17874	-300.22731	-291.31148	1083.81024	-216.43854	-173.15371	971.03526	-207.06303	-96.21071	885.24791	-223.75065	-121.30617	875.90796	-188.26162	-296.50504	1153.47216	-823.99739	-386.35590	1096.40855	-767.87491	-361.30384	1092.15946	-838.88292	-351.14134	914.73034	-851.94217	-335.96973	816.58790	-837.02189	-372.61982	817.22088	-853.83030	-430.25696	852.17328	-428.86325	-435.71554	847.72004	-659.12346	-420.95447	851.73198	-458.28331	-427.33265	848.48802	-629.48898	
173	1.72000000	-172.77979	502.54971	-427.46796	-155.83158	422.89591	-407.74378	-325.75865	103.27529	-422.68154	-391.70334	54.15518	-470.09335	-193.97985	39.08109	-382.10151	-155.99870	63.38097	-440.10299	-183.06563	502.50759	-737.24405	-178.38220	387.76222	-753.80869	-333.15872	101.19424	-716.65998	-401.29397	53.93433	-671.05662	-192.54128	34.11708	-767.62050	-160.21846	62.64245	-707.19560	-197.28686	317.52586	-401.09797	-225.62193	450.83272	-391.61550	-274.90187	347.31466	-388.24058	-259.40166	426.70632	-759.21355	-298.85810	312.54978	-754.29955	-300.25231	787.44508	-377.21996	-226.03074	709.16890	-394.75153	-245.78464	649.74857	-371.32435	-380.73759	706.79065	-376.93432	-294.30644	627.38305	-382.76222	-315.65655	793.88821	-748.95967	-220.44269	692.91328	-751.50561	-401.16458	714.13922	-742.07991	-302.14686	617.20007	-756.40702	-323.73850	888.10718	-425.73618	-483.80924	996.98299	-500.76541	-331.38935	883.55383	-685.68206	-487.36507	994.94330	-605.21057	-196.78318	1423.67844	-566.12920	-162.33262	1369.50889	-397.54004	-153.93066	1354.92246	-719.07637	-101.06523	1290.95769	-527.70888	-103.36691	1285.40247	-583.23514	-249.84152	1150.14341	-253.69322	-307.08683	1048.52911	-302.05892	-286.42398	1073.14774	-218.12669	-169.53661	958.54016	-210.68286	-93.80190	872.39799	-229.11484	-118.64117	862.61442	-193.64892	-294.48434	1144.79645	-823.84645	-384.76523	1089.71209	-767.30445	-360.43636	1084.30933	-837.80795	-353.49676	906.79508	-849.89834	-339.60500	808.96921	-834.74371	-376.35484	809.23323	-850.12228	-430.71485	847.72877	-429.33342	-435.37174	843.12989	-659.60859	-421.33522	847.08597	-458.55482	-427.17526	843.73645	-630.08841	
174	1.73000000	-170.37395	500.91376	-427.78543	-153.60619	421.47442	-407.76126	-325.94779	103.07159	-423.05168	-391.69180	54.04928	-470.31839	-194.29232	39.10397	-381.88496	-156.28465	63.59089	-439.63251	-179.04706	500.94787	-736.50673	-175.07109	386.22798	-752.87629	-332.97304	101.23272	-716.55394	-401.42338	53.85249	-671.02204	-192.62541	34.38612	-767.38566	-160.50987	62.71129	-706.85383	-195.87454	316.35833	-401.24248	-222.75568	450.10619	-391.92673	-273.63883	346.78546	-389.00983	-255.69775	425.87602	-758.82331	-296.08289	312.44028	-754.46620	-300.32659	784.64704	-377.31558	-225.35216	707.17753	-394.50557	-244.73397	647.52320	-371.48988	-380.11670	703.19918	-377.36001	-292.92100	624.71303	-382.83314	-314.41094	791.20548	-748.48824	-217.81324	691.16452	-750.36387	-398.10737	711.77621	-742.37308	-298.70391	614.66197	-756.30057	-323.42189	882.62929	-425.67430	-482.69132	992.42177	-501.62411	-330.36677	878.01970	-685.92358	-486.07033	990.31226	-606.01053	-193.14503	1416.40991	-566.30453	-158.08642	1359.84355	-397.14771	-148.61841	1344.44925	-720.13727	-97.78786	1283.13643	-528.14781	-99.86544	1277.50483	-583.17673	-244.78869	1139.14753	-254.75627	-302.91579	1038.22969	-303.46861	-281.68579	1061.85189	-219.52143	-165.54641	946.10475	-214.81588	-90.88338	859.67356	-235.91949	-114.94642	849.79562	-199.56839	-292.54538	1135.37038	-824.07572	-383.33655	1081.96266	-766.49209	-359.63912	1075.57925	-836.74987	-355.08263	898.10428	-848.12375	-341.51108	800.46848	-833.03531	-378.65696	800.55254	-847.30361	-430.69570	842.91430	-429.79814	-434.62830	838.15283	-660.08357	-421.13948	842.19399	-458.68379	-426.69874	838.72386	-630.41103	
